<svg width="24" height="24" viewBox="0 0 24 24" fill="none" xmlns="http://www.w3.org/2000/svg">
<path fill-rule="evenodd" clip-rule="evenodd" d="M6 13C8.20914 13 10 14.7909 10 17C10 19.2091 8.20914 21 6 21C3.79086 21 2 19.2091 2 17C2 14.7909 3.79086 13 6 13ZM6 15C4.89543 15 4 15.8954 4 17C4 18.1046 4.89543 19 6 19C7.10457 19 8 18.1046 8 17C8 15.8954 7.10457 15 6 15Z" fill="black"/>
<path d="M21 16C21.2652 16 21.5195 16.1054 21.707 16.293C21.8946 16.4805 22 16.7348 22 17C22 17.2652 21.8946 17.5195 21.707 17.707C21.5195 17.8946 21.2652 18 21 18H13C12.7348 18 12.4805 17.8946 12.293 17.707C12.1054 17.5195 12 17.2652 12 17C12 16.7348 12.1054 16.4805 12.293 16.293C12.4805 16.1054 12.7348 16 13 16H21Z" fill="black"/>
<path fill-rule="evenodd" clip-rule="evenodd" d="M6 3C8.20914 3 10 4.79086 10 7C10 9.20914 8.20914 11 6 11C3.79086 11 2 9.20914 2 7C2 4.79086 3.79086 3 6 3ZM8.53027 5.46973C8.23738 5.17683 7.76262 5.17683 7.46973 5.46973L5.5 7.43945L4.53027 6.46973C4.23738 6.17683 3.76262 6.17683 3.46973 6.46973C3.17683 6.76262 3.17683 7.23738 3.46973 7.53027L4.68652 8.74707C5.13563 9.19617 5.86437 9.19617 6.31348 8.74707L8.53027 6.53027C8.82317 6.23738 8.82317 5.76262 8.53027 5.46973Z" fill="black"/>
<path d="M21 6C21.2652 6 21.5195 6.10543 21.707 6.29297C21.8946 6.48051 22 6.73478 22 7C22 7.26522 21.8946 7.51949 21.707 7.70703C21.5195 7.89457 21.2652 8 21 8H13C12.8687 8 12.7385 7.97408 12.6172 7.92383C12.4959 7.87357 12.3858 7.79986 12.293 7.70703C12.2001 7.61421 12.1264 7.50409 12.0762 7.38281C12.0259 7.26149 12 7.13132 12 7C12 6.73478 12.1054 6.48051 12.293 6.29297C12.4805 6.10543 12.7348 6 13 6H21Z" fill="black"/>
</svg>
