<svg width="24" height="24" viewBox="0 0 24 24" fill="none" xmlns="http://www.w3.org/2000/svg">
<path fill-rule="evenodd" clip-rule="evenodd" d="M12.8379 7C13.3659 7 13.8203 7.00027 14.1953 7.03027C14.5902 7.06329 14.9844 7.1342 15.3623 7.32715C15.9265 7.61472 16.3853 8.07347 16.6729 8.6377C16.8658 9.01559 16.9367 9.4098 16.9688 9.80469C16.9998 10.1797 17 10.6351 17 11.1621V18.8379C17 19.3659 16.9997 19.8203 16.9697 20.1953C16.9367 20.5902 16.8658 20.9844 16.6729 21.3623C16.3853 21.9265 15.9265 22.3853 15.3623 22.6729C14.9844 22.8658 14.5902 22.9367 14.1953 22.9688C13.8203 22.9998 13.3649 23 12.8389 23H5.16016C4.63316 23 4.17871 22.9997 3.80371 22.9697C3.40881 22.9367 3.01462 22.8658 2.63672 22.6729C2.07249 22.3853 1.61375 21.9265 1.32617 21.3623C1.13323 20.9844 1.06229 20.5902 1.03027 20.1953C1.00027 19.8203 1 19.3649 1 18.8379V11.1611C1 10.6341 1.00027 10.1797 1.03027 9.80469C1.06329 9.4098 1.1342 9.01559 1.32715 8.6377C1.61472 8.07347 2.07347 7.61472 2.6377 7.32715C3.01559 7.1342 3.4098 7.06326 3.80469 7.03125C4.17969 7.00025 4.63513 7 5.16113 7H12.8379ZM5.2002 9C4.6232 9 4.25077 9.00041 3.96777 9.02441C3.69597 9.04642 3.59488 9.08438 3.5459 9.10938C3.35793 9.20521 3.20521 9.35793 3.10938 9.5459C3.08438 9.59588 3.04642 9.69597 3.02441 9.96777C3.00041 10.2498 3 10.6232 3 11.2002V18.7998C3 19.3768 3.00041 19.7492 3.02441 20.0322C3.04642 20.304 3.08438 20.4051 3.10938 20.4541C3.20521 20.6421 3.35793 20.7948 3.5459 20.8906C3.59588 20.9156 3.69597 20.9536 3.96777 20.9756C4.24977 20.9996 4.6232 21 5.2002 21H12.7998C13.3768 21 13.7492 20.9996 14.0322 20.9756C14.304 20.9536 14.4051 20.9156 14.4541 20.8906C14.6421 20.7948 14.7948 20.6421 14.8906 20.4541C14.9156 20.4041 14.9536 20.304 14.9756 20.0322C14.9996 19.7502 15 19.3768 15 18.7998V11.2002C15 10.6232 14.9996 10.2508 14.9756 9.96777C14.9536 9.69597 14.9156 9.59488 14.8906 9.5459C14.7948 9.35793 14.6421 9.20521 14.4541 9.10938C14.4041 9.08438 14.304 9.04642 14.0322 9.02441C13.7502 9.00041 13.3768 9 12.7998 9H5.2002Z" fill="black"/>
<path d="M18.8379 1C19.3659 1 19.8203 1.00027 20.1953 1.03027C20.5902 1.06329 20.9844 1.1342 21.3623 1.32715C21.9265 1.61472 22.3853 2.07347 22.6729 2.6377C22.8658 3.01559 22.9367 3.4098 22.9688 3.80469C22.9998 4.17969 23 4.63513 23 5.16113V12.8389C23 13.3659 22.9997 13.8203 22.9697 14.1953C22.9367 14.5902 22.8658 14.9844 22.6729 15.3623C22.3853 15.9265 21.9265 16.3853 21.3623 16.6729C20.9844 16.8658 20.5902 16.9367 20.1953 16.9688C19.8203 16.9998 19.3649 17 18.8379 17H18V15H18.7998C19.3768 15 19.7492 14.9996 20.0322 14.9756C20.304 14.9536 20.4051 14.9156 20.4541 14.8906C20.6421 14.7948 20.7948 14.6421 20.8906 14.4541C20.9156 14.4041 20.9536 14.304 20.9756 14.0322C20.9996 13.7502 21 13.3768 21 12.7998V5.2002C21 4.6232 20.9996 4.25077 20.9756 3.96777C20.9536 3.69597 20.9156 3.59488 20.8906 3.5459C20.7948 3.35793 20.6421 3.20521 20.4541 3.10938C20.4041 3.08438 20.304 3.04642 20.0322 3.02441C19.7502 3.00041 19.3768 3 18.7998 3H11.2002C10.6232 3 10.2508 3.00041 9.96777 3.02441C9.69597 3.04642 9.59488 3.08438 9.5459 3.10938C9.35793 3.20521 9.20521 3.35793 9.10938 3.5459C9.08438 3.59588 9.04642 3.69597 9.02441 3.96777C9.00041 4.24977 9 4.6232 9 5.2002V6H7V5.16113C7 4.63413 7.00027 4.17969 7.03027 3.80469C7.06329 3.4098 7.1342 3.01559 7.32715 2.6377C7.61472 2.07347 8.07347 1.61472 8.6377 1.32715C9.01559 1.1342 9.4098 1.06326 9.80469 1.03125C10.1797 1.00025 10.6351 1 11.1621 1H18.8379Z" fill="black"/>
</svg>
